nColumns=19
nRows=151
DataType=double
version=3
OpenSimVersion=4.1
endheader
time	ground_force_calcn_r_vx	ground_force_calcn_r_vy	ground_force_calcn_r_vz	ground_force_calcn_r_px	ground_force_calcn_r_py	ground_force_calcn_r_pz	ground_force_calcn_r_mx	ground_force_calcn_r_my	ground_force_calcn_r_mz	ground_force_calcn_l_vx	ground_force_calcn_l_vy	ground_force_calcn_l_vz	ground_force_calcn_l_px	ground_force_calcn_l_py	ground_force_calcn_l_pz	ground_force_calcn_l_mx	ground_force_calcn_l_my	ground_force_calcn_l_mz
0.98	0	0	0	0	0	0	0	0	0	343.073	509.815	-106.171	0.362458	0	-0.317157	33.8038	50.2333	-10.4613
0.985	0	0	0	0	0	0	0	0	0	273.815	359.999	-51.5453	0.323753	0	-0.341833	13.1501	17.2891	-2.47549
0.99	0	0	0	0	0	0	0	0	0	193.55	228.218	-3.21235	0.318764	0	-0.403336	-7.51164	-8.85711	0.124671
0.995	0	0	0	0	0	0	0	0	0	121.092	119.28	15.9661	0.39659	0	-0.48405	-14.5479	-14.3303	-1.91817
1	0	0	0	0	0	0	0	0	0	67.4905	44.2139	7.71773	0.402181	0	-0.560656	-8.81233	-5.77306	-1.00771
1.005	0	0	0	0	0	0	0	0	0	0	0	0	0	0	0	0	0	0
1.01	0	0	0	0	0	0	0	0	0	0	0	0	0	0	0	0	0	0
1.015	0	0	0	0	0	0	0	0	0	0	0	0	0	0	0	0	0	0
1.02	0	0	0	0	0	0	0	0	0	0	0	0	0	0	0	0	0	0
1.025	0	0	0	0	0	0	0	0	0	0	0	0	0	0	0	0	0	0
1.03	0	0	0	0	0	0	0	0	0	0	0	0	0	0	0	0	0	0
1.035	0	0	0	0	0	0	0	0	0	0	0	0	0	0	0	0	0	0
1.04	0	0	0	0	0	0	0	0	0	0	0	0	0	0	0	0	0	0
1.045	0	0	0	0	0	0	0	0	0	0	0	0	0	0	0	0	0	0
1.05	0	0	0	0	0	0	0	0	0	0	0	0	0	0	0	0	0	0
1.055	0	0	0	0	0	0	0	0	0	0	0	0	0	0	0	0	0	0
1.06	0	0	0	0	0	0	0	0	0	0	0	0	0	0	0	0	0	0
1.065	0	0	0	0	0	0	0	0	0	0	0	0	0	0	0	0	0	0
1.07	0	0	0	0	0	0	0	0	0	0	0	0	0	0	0	0	0	0
1.075	0	0	0	0	0	0	0	0	0	0	0	0	0	0	0	0	0	0
1.08	0	0	0	0	0	0	0	0	0	0	0	0	0	0	0	0	0	0
1.085	0	0	0	0	0	0	0	0	0	0	0	0	0	0	0	0	0	0
1.09	0	0	0	0	0	0	0	0	0	0	0	0	0	0	0	0	0	0
1.095	0	0	0	0	0	0	0	0	0	0	0	0	0	0	0	0	0	0
1.1	0	0	0	0	0	0	0	0	0	0	0	0	0	0	0	0	0	0
1.105	0	0	0	0	0	0	0	0	0	0	0	0	0	0	0	0	0	0
1.11	0	0	0	0	0	0	0	0	0	0	0	0	0	0	0	0	0	0
1.115	0	0	0	0	0	0	0	0	0	0	0	0	0	0	0	0	0	0
1.12	0	0	0	0	0	0	0	0	0	0	0	0	0	0	0	0	0	0
1.125	0	0	0	0	0	0	0	0	0	0	0	0	0	0	0	0	0	0
1.13	0	0	0	0	0	0	0	0	0	0	0	0	0	0	0	0	0	0
1.135	0	0	0	0	0	0	0	0	0	0	0	0	0	0	0	0	0	0
1.14	-48.9254	47.2513	-26.083	1.16491	0	-0.201018	1.58646	-1.53218	0.84577	0	0	0	0	0	0	0	0	0
1.145	-84.4941	165.862	-45.3987	1.12941	0	-0.222465	1.25422	-2.46204	0.673892	0	0	0	0	0	0	0	0	0
1.15	-122.349	352.104	-67.7382	1.08052	0	-0.227983	0.969145	-2.78907	0.536566	0	0	0	0	0	0	0	0	0
1.155	-149.392	596.081	-88.8102	1.05354	0	-0.238358	1.28338	-5.12074	0.76294	0	0	0	0	0	0	0	0	0
1.16	-155.846	880.968	-99.8941	1.02822	0	-0.247002	1.45368	-8.21741	0.931782	0	0	0	0	0	0	0	0	0
1.165	-146.491	1183.01	-92.456	1.00577	0	-0.25404	0.96152	-7.76494	0.606853	0	0	0	0	0	0	0	0	0
1.17	-144.087	1462.45	-66.6922	0.986838	0	-0.25894	0.238503	-2.42075	0.110394	0	0	0	0	0	0	0	0	0
1.175	-173.79	1675.12	-31.6077	0.972097	0	-0.261968	-0.507482	4.89147	-0.0922971	0	0	0	0	0	0	0	0	0
1.18	-238.275	1804.56	5.03781	0.962826	0	-0.263466	-1.41461	10.7135	0.0299089	0	0	0	0	0	0	0	0	0
1.185	-316.997	1878.57	41.6268	0.958266	0	-0.263535	-2.23234	13.2291	0.293141	0	0	0	0	0	0	0	0	0
1.19	-384.937	1942.11	76.7934	0.955327	0	-0.262023	-2.32274	11.7189	0.463378	0	0	0	0	0	0	0	0	0
1.195	-425.322	2023.03	101.94	0.951518	0	-0.259194	-1.14889	5.46464	0.275362	0	0	0	0	0	0	0	0	0
1.2	-435.136	2121.7	104.811	0.943977	0	-0.255986	0.901269	-4.39455	-0.217088	0	0	0	0	0	0	0	0	0
1.205	-418.675	2221.3	75.853	0.93005	0	-0.253873	2.51005	-13.3172	-0.454756	0	0	0	0	0	0	0	0	0
1.21	-380.468	2304.19	18.7326	0.909935	0	-0.253492	2.57537	-15.597	-0.1268	0	0	0	0	0	0	0	0	0
1.215	-328.466	2364.06	-51.9565	0.885599	0	-0.254556	1.18137	-8.50268	0.186869	0	0	0	0	0	0	0	0	0
1.22	-271.074	2407.88	-115.084	0.860113	0	-0.255853	-0.328961	2.92208	-0.13966	0	0	0	0	0	0	0	0	0
1.225	-210.361	2444.28	-154.078	0.83588	0	-0.256501	-0.903667	10.5001	-0.661887	0	0	0	0	0	0	0	0	0
1.23	-146.804	2470.5	-165.721	0.812466	0	-0.256592	-0.757799	12.7527	-0.85545	0	0	0	0	0	0	0	0	0
1.235	-83.5104	2477.98	-156.174	0.789292	0	-0.256571	-0.431435	12.8018	-0.806831	0	0	0	0	0	0	0	0	0
1.24	-25.6922	2466.24	-133.522	0.767571	0	-0.256618	-0.13728	13.1778	-0.713442	0	0	0	0	0	0	0	0	0
1.245	23.5509	2442.06	-104.149	0.748336	0	-0.256764	0.136882	14.1937	-0.605337	0	0	0	0	0	0	0	0	0
1.25	68.4017	2407.3	-70.6334	0.731198	0	-0.256862	0.348361	12.26	-0.359726	0	0	0	0	0	0	0	0	0
1.255	113.499	2357.28	-35.2309	0.714604	0	-0.257003	0.224055	4.65343	-0.0695482	0	0	0	0	0	0	0	0	0
1.26	159.827	2286.19	-0.612241	0.697268	0	-0.257224	-0.500195	-7.15485	0.00191607	0	0	0	0	0	0	0	0	0
1.265	206.779	2193.15	28.4556	0.679426	0	-0.257652	-1.8495	-19.6163	-0.254517	0	0	0	0	0	0	0	0	0
1.27	252.793	2080.54	44.9156	0.661635	0	-0.258305	-3.36709	-27.7119	-0.598256	0	0	0	0	0	0	0	0	0
1.275	295.476	1948.66	40.8606	0.643546	0	-0.258863	-3.85326	-25.4122	-0.532858	0	0	0	0	0	0	0	0	0
1.28	330.745	1794.14	12.849	0.62229	0	-0.258646	-1.83516	-9.95492	-0.0712936	0	0	0	0	0	0	0	0	0
1.285	357.91	1616.65	-30.8148	0.594464	0	-0.257091	3.08356	13.9282	-0.265484	0	0	0	0	0	0	0	0	0
1.29	380.297	1423.27	-68.5921	0.558019	0	-0.253957	9.36949	35.0655	-1.68993	0	0	0	0	0	0	0	0	0
1.295	396.229	1225.52	-77.0678	0.512063	0	-0.250455	13.1752	40.7504	-2.56262	0	0	0	0	0	0	0	0	0
1.3	397.663	1033.94	-45.4426	0.460423	0	-0.251374	8.52281	22.1596	-0.973937	0	0	0	0	0	0	0	0	0
1.305	374.564	856.303	13.7624	0.416434	0	-0.262285	-6.38609	-14.5995	-0.234641	0	0	0	0	0	0	0	0	0
1.31	326.259	696.461	67.4953	0.396695	0	-0.279466	-21.8737	-46.6935	-4.52515	0	0	0	0	0	0	0	0	0
1.315	266.129	554.418	83.4475	0.3999	0	-0.288359	-25.1493	-52.3927	-7.88582	0	0	0	0	0	0	0	0	0
1.32	209.473	427.625	55.4588	0.405105	0	-0.278537	-14.9549	-30.5294	-3.95936	0	0	0	0	0	0	0	0	0
1.325	163.838	311.36	9.46512	0.408892	0	-0.250115	-0.531439	-1.00996	-0.0307019	0	0	0	0	0	0	0	0	0
1.33	126.366	203.513	-20.8307	0.416593	0	-0.211955	7.98798	12.8646	-1.31677	0	0	0	0	0	0	0	0	0
1.335	92.1379	110.469	-21.5191	0.359476	0	-0.18302	6.72112	8.05834	-1.56974	0	0	0	0	0	0	0	0	0
1.34	61.1837	44.2615	-4.02513	0.328987	0	-0.238729	0.155334	0.112372	-0.0102191	0	0	0	0	0	0	0	0	0
1.345	0	0	0	0	0	0	0	0	0	0	0	0	0	0	0	0	0	0
1.35	0	0	0	0	0	0	0	0	0	0	0	0	0	0	0	0	0	0
1.355	0	0	0	0	0	0	0	0	0	0	0	0	0	0	0	0	0	0
1.36	0	0	0	0	0	0	0	0	0	0	0	0	0	0	0	0	0	0
1.365	0	0	0	0	0	0	0	0	0	0	0	0	0	0	0	0	0	0
1.37	0	0	0	0	0	0	0	0	0	0	0	0	0	0	0	0	0	0
1.375	0	0	0	0	0	0	0	0	0	0	0	0	0	0	0	0	0	0
1.38	0	0	0	0	0	0	0	0	0	0	0	0	0	0	0	0	0	0
1.385	0	0	0	0	0	0	0	0	0	0	0	0	0	0	0	0	0	0
1.39	0	0	0	0	0	0	0	0	0	0	0	0	0	0	0	0	0	0
1.395	0	0	0	0	0	0	0	0	0	0	0	0	0	0	0	0	0	0
1.4	0	0	0	0	0	0	0	0	0	0	0	0	0	0	0	0	0	0
1.405	0	0	0	0	0	0	0	0	0	0	0	0	0	0	0	0	0	0
1.41	0	0	0	0	0	0	0	0	0	0	0	0	0	0	0	0	0	0
1.415	0	0	0	0	0	0	0	0	0	0	0	0	0	0	0	0	0	0
1.42	0	0	0	0	0	0	0	0	0	0	0	0	0	0	0	0	0	0
1.425	0	0	0	0	0	0	0	0	0	0	0	0	0	0	0	0	0	0
1.43	0	0	0	0	0	0	0	0	0	0	0	0	0	0	0	0	0	0
1.435	0	0	0	0	0	0	0	0	0	0	0	0	0	0	0	0	0	0
1.44	0	0	0	0	0	0	0	0	0	0	0	0	0	0	0	0	0	0
1.445	0	0	0	0	0	0	0	0	0	0	0	0	0	0	0	0	0	0
1.45	0	0	0	0	0	0	0	0	0	0	0	0	0	0	0	0	0	0
1.455	0	0	0	0	0	0	0	0	0	0	0	0	0	0	0	0	0	0
1.46	0	0	0	0	0	0	0	0	0	0	0	0	0	0	0	0	0	0
1.465	0	0	0	0	0	0	0	0	0	0	0	0	0	0	0	0	0	0
1.47	0	0	0	0	0	0	0	0	0	-42.0236	38.7435	-4.57613	1.17849	0	-0.290677	2.64273	-2.43646	0.287778
1.475	0	0	0	0	0	0	0	0	0	-75.5818	148.982	10.5557	1.12344	0	-0.369125	0.243959	-0.480878	-0.0340712
1.48	0	0	0	0	0	0	0	0	0	-113.522	325.247	40.7534	1.04459	0	-0.383993	-0.55257	1.58314	0.198368
1.485	0	0	0	0	0	0	0	0	0	-143.492	554.807	84.1463	1.02831	0	-0.370441	-0.714718	2.76344	0.419124
1.49	0	0	0	0	0	0	0	0	0	-155.302	802.723	128.124	1.01532	0	-0.360059	-0.631961	3.26648	0.521366
1.495	0	0	0	0	0	0	0	0	0	-155.537	1043.12	148.217	1.00135	0	-0.352055	-0.0321575	0.215667	0.030644
1.5	0	0	0	0	0	0	0	0	0	-167.362	1264.19	123.011	0.983457	0	-0.346494	0.999727	-7.55155	-0.734797
1.505	0	0	0	0	0	0	0	0	0	-199.86	1454.85	54.7868	0.964926	0	-0.343555	1.86834	-13.6003	-0.512161
1.51	0	0	0	0	0	0	0	0	0	-243.357	1608.12	-26.1659	0.950532	0	-0.342596	1.60173	-10.5844	0.17222
1.515	0	0	0	0	0	0	0	0	0	-288.943	1731.15	-86.6933	0.939515	0	-0.343038	-0.077097	0.461915	-0.0231319
1.52	0	0	0	0	0	0	0	0	0	-328.839	1837.62	-107.118	0.928395	0	-0.343635	-2.05157	11.4646	-0.668289
1.525	0	0	0	0	0	0	0	0	0	-352.124	1941.56	-86.2209	0.915738	0	-0.343259	-2.79008	15.3841	-0.683178
1.53	0	0	0	0	0	0	0	0	0	-354.65	2053.02	-36.3009	0.901207	0	-0.341922	-2.03938	11.8057	-0.208745
1.535	0	0	0	0	0	0	0	0	0	-342.851	2170.91	25.616	0.885569	0	-0.340545	-0.9141	5.788	0.0682965
1.54	0	0	0	0	0	0	0	0	0	-324.271	2281.81	83.4177	0.870809	0	-0.339858	-0.277247	1.95092	0.0713209
1.545	0	0	0	0	0	0	0	0	0	-304.251	2371.45	126.986	0.856718	0	-0.33968	0.050104	-0.390529	-0.020912
1.55	0	0	0	0	0	0	0	0	0	-280.202	2432.48	150.839	0.841155	0	-0.339682	0.574754	-4.98954	-0.309404
1.555	0	0	0	0	0	0	0	0	0	-242.545	2466.11	154.178	0.822008	0	-0.339907	1.14317	-11.6233	-0.726676
1.56	0	0	0	0	0	0	0	0	0	-188.409	2482.97	141.25	0.799194	0	-0.340587	1.08355	-14.2796	-0.812334
1.565	0	0	0	0	0	0	0	0	0	-124.641	2493.04	119.77	0.77562	0	-0.341434	0.406005	-8.12076	-0.390136
1.57	0	0	0	0	0	0	0	0	0	-61.0639	2494.62	95.4325	0.753038	0	-0.342051	-0.0697761	2.85053	0.109048
1.575	0	0	0	0	0	0	0	0	0	-2.20123	2481.45	70.6931	0.731197	0	-0.342263	-0.00855639	9.64565	0.274791
1.58	0	0	0	0	0	0	0	0	0	54.3597	2452.14	45.9939	0.710144	0	-0.342168	0.23067	10.4054	0.19517
1.585	0	0	0	0	0	0	0	0	0	110.527	2408.56	23.584	0.690059	0	-0.341811	0.536229	11.6853	0.114419
1.59	0	0	0	0	0	0	0	0	0	164.538	2352.52	8.85106	0.671772	0	-0.340981	1.22464	17.5096	0.0658777
1.595	0	0	0	0	0	0	0	0	0	212.672	2283.46	6.36843	0.656165	0	-0.339479	2.15983	23.1901	0.0646758
1.6	0	0	0	0	0	0	0	0	0	252.149	2198.7	15.7625	0.642832	0	-0.337587	2.2523	19.6398	0.140797
1.605	0	0	0	0	0	0	0	0	0	283.767	2094.56	32.1481	0.630466	0	-0.336053	0.386688	2.85424	0.043808
1.61	0	0	0	0	0	0	0	0	0	310.223	1967.74	48.649	0.617272	0	-0.335381	-3.05885	-19.4023	-0.479688
1.615	0	0	0	0	0	0	0	0	0	334.906	1815.5	57.0286	0.600406	0	-0.33552	-6.19712	-33.5942	-1.05526
1.62	0	0	0	0	0	0	0	0	0	361.306	1637.29	47.8303	0.575701	0	-0.336175	-6.86519	-31.1103	-0.908826
1.625	0	0	0	0	0	0	0	0	0	390.748	1436.94	16.9756	0.539173	0	-0.336338	-3.39875	-12.4986	-0.147655
1.63	0	0	0	0	0	0	0	0	0	419.701	1223.8	-29.4365	0.489804	0	-0.333747	5.18484	15.1184	-0.363647
1.635	0	0	0	0	0	0	0	0	0	437.944	1013.35	-74.7385	0.433703	0	-0.325817	17.3417	40.1269	-2.9595
1.64	0	0	0	0	0	0	0	0	0	432.943	820.763	-99.3993	0.386814	0	-0.31397	26.7261	50.6667	-6.13604
1.645	0	0	0	0	0	0	0	0	0	395.951	648.788	-94.2137	0.363775	0	-0.305684	26.3835	43.2309	-6.27777
1.65	0	0	0	0	0	0	0	0	0	330.045	487.431	-66.9362	0.362234	0	-0.308638	16.7306	24.7088	-3.39312
1.655	0	0	0	0	0	0	0	0	0	251.811	328.64	-35.2921	0.363271	0	-0.325134	4.71607	6.15495	-0.66097
1.66	0	0	0	0	0	0	0	0	0	179.553	185.584	-13.785	0.357772	0	-0.358905	-3.96777	-4.10103	0.30462
1.665	0	0	0	0	0	0	0	0	0	121.687	79.7779	-5.34837	0.343808	0	-0.424655	-7.08657	-4.64595	0.311469
1.67	0	0	0	0	0	0	0	0	0	79.6466	16.0034	-6.55992	0.315655	0	-0.518321	-2.9045	-0.583602	0.239223
1.675	0	0	0	0	0	0	0	0	0	0	0	0	0	0	0	0	0	0
1.68	0	0	0	0	0	0	0	0	0	0	0	0	0	0	0	0	0	0
1.685	0	0	0	0	0	0	0	0	0	0	0	0	0	0	0	0	0	0
1.69	0	0	0	0	0	0	0	0	0	0	0	0	0	0	0	0	0	0
1.695	0	0	0	0	0	0	0	0	0	0	0	0	0	0	0	0	0	0
1.7	0	0	0	0	0	0	0	0	0	0	0	0	0	0	0	0	0	0
1.705	0	0	0	0	0	0	0	0	0	0	0	0	0	0	0	0	0	0
1.71	0	0	0	0	0	0	0	0	0	0	0	0	0	0	0	0	0	0
1.715	0	0	0	0	0	0	0	0	0	0	0	0	0	0	0	0	0	0
1.72	0	0	0	0	0	0	0	0	0	0	0	0	0	0	0	0	0	0
1.725	0	0	0	0	0	0	0	0	0	0	0	0	0	0	0	0	0	0
1.73	0	0	0	0	0	0	0	0	0	0	0	0	0	0	0	0	0	0
